<mxfile host="app.diagrams.net" modified="2022-08-10T05:28:22.959Z" agent="5.0 (X11; Linux x86_64) AppleWebKit/537.36 (KHTML, like Gecko) Chrome/98.0.4758.102 Safari/537.36" etag="t3rKLQ7Uv36RplvhSJCH" version="20.2.3" type="github">
  <diagram id="0FND-naYnj3r54SGn81p" name="Page-1">
    <mxGraphModel dx="1422" dy="705" grid="1" gridSize="10" guides="1" tooltips="1" connect="1" arrows="1" fold="1" page="1" pageScale="1" pageWidth="850" pageHeight="1100" math="0" shadow="0">
      <root>
        <mxCell id="0" />
        <mxCell id="1" parent="0" />
        <mxCell id="BQAGASO_v0UzuPKU4Ihx-2" value="Switch" style="rounded=0;whiteSpace=wrap;html=1;" vertex="1" parent="1">
          <mxGeometry x="190" y="720" width="290" height="340" as="geometry" />
        </mxCell>
        <mxCell id="BQAGASO_v0UzuPKU4Ihx-3" value="Outlet" style="rounded=0;whiteSpace=wrap;html=1;" vertex="1" parent="1">
          <mxGeometry x="810" y="710" width="440" height="340" as="geometry" />
        </mxCell>
        <mxCell id="BQAGASO_v0UzuPKU4Ihx-4" value="Light" style="rounded=0;whiteSpace=wrap;html=1;" vertex="1" parent="1">
          <mxGeometry x="680" y="60" width="320" height="340" as="geometry" />
        </mxCell>
        <mxCell id="BQAGASO_v0UzuPKU4Ihx-29" style="edgeStyle=orthogonalEdgeStyle;rounded=0;orthogonalLoop=1;jettySize=auto;html=1;exitX=0.5;exitY=0;exitDx=0;exitDy=0;entryX=0.5;entryY=0;entryDx=0;entryDy=0;endArrow=none;endFill=0;" edge="1" parent="1" source="BQAGASO_v0UzuPKU4Ihx-5" target="BQAGASO_v0UzuPKU4Ihx-18">
          <mxGeometry relative="1" as="geometry" />
        </mxCell>
        <mxCell id="BQAGASO_v0UzuPKU4Ihx-5" value="" style="rounded=0;whiteSpace=wrap;html=1;" vertex="1" parent="1">
          <mxGeometry x="340" y="680" width="120" height="60" as="geometry" />
        </mxCell>
        <mxCell id="BQAGASO_v0UzuPKU4Ihx-6" value="" style="rounded=0;whiteSpace=wrap;html=1;" vertex="1" parent="1">
          <mxGeometry x="340" y="740" width="40" height="30" as="geometry" />
        </mxCell>
        <mxCell id="BQAGASO_v0UzuPKU4Ihx-7" value="" style="rounded=0;whiteSpace=wrap;html=1;fillColor=#000000;" vertex="1" parent="1">
          <mxGeometry x="380" y="740" width="40" height="30" as="geometry" />
        </mxCell>
        <mxCell id="BQAGASO_v0UzuPKU4Ihx-8" value="" style="rounded=0;whiteSpace=wrap;html=1;fillColor=#FF0000;" vertex="1" parent="1">
          <mxGeometry x="420" y="740" width="40" height="30" as="geometry" />
        </mxCell>
        <mxCell id="BQAGASO_v0UzuPKU4Ihx-9" value="" style="rounded=0;whiteSpace=wrap;html=1;" vertex="1" parent="1">
          <mxGeometry x="210" y="680" width="80" height="60" as="geometry" />
        </mxCell>
        <mxCell id="BQAGASO_v0UzuPKU4Ihx-11" value="" style="rounded=0;whiteSpace=wrap;html=1;" vertex="1" parent="1">
          <mxGeometry x="210" y="740" width="40" height="30" as="geometry" />
        </mxCell>
        <mxCell id="BQAGASO_v0UzuPKU4Ihx-12" value="" style="rounded=0;whiteSpace=wrap;html=1;fillColor=#000000;" vertex="1" parent="1">
          <mxGeometry x="250" y="740" width="40" height="30" as="geometry" />
        </mxCell>
        <mxCell id="BQAGASO_v0UzuPKU4Ihx-13" value="" style="rounded=0;whiteSpace=wrap;html=1;" vertex="1" parent="1">
          <mxGeometry x="280" y="1040" width="80" height="60" as="geometry" />
        </mxCell>
        <mxCell id="BQAGASO_v0UzuPKU4Ihx-14" value="" style="rounded=0;whiteSpace=wrap;html=1;" vertex="1" parent="1">
          <mxGeometry x="280" y="1010" width="40" height="30" as="geometry" />
        </mxCell>
        <mxCell id="BQAGASO_v0UzuPKU4Ihx-15" value="" style="rounded=0;whiteSpace=wrap;html=1;fillColor=#000000;" vertex="1" parent="1">
          <mxGeometry x="320" y="1010" width="40" height="30" as="geometry" />
        </mxCell>
        <mxCell id="BQAGASO_v0UzuPKU4Ihx-18" value="" style="rounded=0;whiteSpace=wrap;html=1;" vertex="1" parent="1">
          <mxGeometry x="1110" y="680" width="120" height="60" as="geometry" />
        </mxCell>
        <mxCell id="BQAGASO_v0UzuPKU4Ihx-19" value="" style="rounded=0;whiteSpace=wrap;html=1;" vertex="1" parent="1">
          <mxGeometry x="1110" y="740" width="40" height="30" as="geometry" />
        </mxCell>
        <mxCell id="BQAGASO_v0UzuPKU4Ihx-20" value="" style="rounded=0;whiteSpace=wrap;html=1;fillColor=#000000;" vertex="1" parent="1">
          <mxGeometry x="1150" y="740" width="40" height="30" as="geometry" />
        </mxCell>
        <mxCell id="BQAGASO_v0UzuPKU4Ihx-21" value="" style="rounded=0;whiteSpace=wrap;html=1;fillColor=#FF0000;" vertex="1" parent="1">
          <mxGeometry x="1190" y="740" width="40" height="30" as="geometry" />
        </mxCell>
        <mxCell id="BQAGASO_v0UzuPKU4Ihx-23" value="" style="rounded=0;whiteSpace=wrap;html=1;" vertex="1" parent="1">
          <mxGeometry x="970" y="680" width="80" height="60" as="geometry" />
        </mxCell>
        <mxCell id="BQAGASO_v0UzuPKU4Ihx-24" value="" style="rounded=0;whiteSpace=wrap;html=1;" vertex="1" parent="1">
          <mxGeometry x="970" y="740" width="40" height="30" as="geometry" />
        </mxCell>
        <mxCell id="BQAGASO_v0UzuPKU4Ihx-25" value="" style="rounded=0;whiteSpace=wrap;html=1;fillColor=#000000;" vertex="1" parent="1">
          <mxGeometry x="1010" y="740" width="40" height="30" as="geometry" />
        </mxCell>
        <mxCell id="BQAGASO_v0UzuPKU4Ihx-26" value="" style="rounded=0;whiteSpace=wrap;html=1;" vertex="1" parent="1">
          <mxGeometry x="830" y="680" width="80" height="60" as="geometry" />
        </mxCell>
        <mxCell id="BQAGASO_v0UzuPKU4Ihx-27" value="" style="rounded=0;whiteSpace=wrap;html=1;" vertex="1" parent="1">
          <mxGeometry x="830" y="740" width="40" height="30" as="geometry" />
        </mxCell>
        <mxCell id="BQAGASO_v0UzuPKU4Ihx-28" value="" style="rounded=0;whiteSpace=wrap;html=1;fillColor=#000000;" vertex="1" parent="1">
          <mxGeometry x="870" y="740" width="40" height="30" as="geometry" />
        </mxCell>
        <mxCell id="BQAGASO_v0UzuPKU4Ihx-31" style="edgeStyle=orthogonalEdgeStyle;rounded=0;orthogonalLoop=1;jettySize=auto;html=1;exitX=0.5;exitY=1;exitDx=0;exitDy=0;entryX=0.5;entryY=0;entryDx=0;entryDy=0;endArrow=none;endFill=0;" edge="1" parent="1" source="BQAGASO_v0UzuPKU4Ihx-30" target="BQAGASO_v0UzuPKU4Ihx-9">
          <mxGeometry relative="1" as="geometry" />
        </mxCell>
        <mxCell id="BQAGASO_v0UzuPKU4Ihx-30" value="Power" style="rounded=0;whiteSpace=wrap;html=1;fillColor=#FF0000;" vertex="1" parent="1">
          <mxGeometry x="190" y="470" width="120" height="60" as="geometry" />
        </mxCell>
      </root>
    </mxGraphModel>
  </diagram>
</mxfile>
